<svg width="120" height="25" viewBox="0 0 120 25" fill="#19325C" xmlns="http://www.w3.org/2000/svg"><path d="M14.2718 11.3675C14.2085 11.3675 14.1242 11.4102 14.1031 11.4743L9.48464 21.0897C9.46355 21.1538 9.46355 21.2179 9.48464 21.282C9.52682 21.3461 9.59009 21.3675 9.65335 21.3675H12.3316C12.416 21.3675 12.4792 21.3248 12.5003 21.2607L17.1188 11.6453C17.1609 11.5812 17.1609 11.5171 17.1188 11.453C17.0766 11.3889 17.0133 11.3675 16.95 11.3675H14.2718Z"></path><path d="M28.8652 24.6581L23.2556 18.4829H27.9373C28.0216 18.4829 28.0849 18.4402 28.106 18.3761L33.2727 7.58549C33.3149 7.52138 33.3149 7.45728 33.2727 7.39318C33.2305 7.32908 33.1673 7.30771 33.104 7.30771H10.3915L10.9609 6.17523C11.2139 5.66241 11.5724 5.21369 11.9731 4.82908C12.3738 4.44446 12.8377 4.14532 13.3439 3.91027C13.9765 3.63249 14.6514 3.48292 15.3473 3.48292H27.6209C27.7053 3.48292 27.7686 3.44019 27.7896 3.37608L28.9495 0.961554C28.9917 0.897452 28.9917 0.833349 28.9495 0.769246C28.9073 0.705144 28.8441 0.683777 28.7808 0.683777H14.9466C13.6602 0.747879 12.416 1.11113 11.2983 1.75215C10.4969 2.22224 9.80098 2.8419 9.25267 3.58976C9.06287 3.84617 8.87307 4.12395 8.72545 4.42309L7.3336 7.32908H1.3444C1.26005 7.32908 1.19678 7.37181 1.1757 7.43591L0.0158165 9.87181C-0.00527218 9.93591 -0.00527218 10 0.0158165 10.0641C0.0579939 10.1282 0.12126 10.1496 0.184526 10.1496H5.87848L0.690655 21.0898C0.648478 21.1966 0.690655 21.3034 0.77501 21.3462C0.796099 21.3675 0.838276 21.3675 0.859365 21.3675H3.49545C3.57981 21.3675 3.64307 21.3248 3.66416 21.2607L8.93634 10.1496H28.9706L26.2923 15.7906H20.7671H17.3296C17.2242 15.7906 17.1398 15.8761 17.1398 15.9829C17.1398 16.0257 17.1609 16.0898 17.182 16.1111L25.259 24.9359C25.3012 24.9786 25.3434 25 25.4066 25H28.7386C28.8441 25 28.9284 24.9145 28.9284 24.8077C28.9284 24.765 28.9073 24.7009 28.8652 24.6581Z"></path><path d="M50.6076 7.39318C50.5654 7.32908 50.5022 7.30771 50.4389 7.30771H44.9559H44.9137H44.8926H44.8504H39.9367C38.6503 7.37181 37.4061 7.71369 36.2884 8.35472C35.487 8.8248 34.7911 9.44446 34.2428 10.1923C34.053 10.4487 33.8632 10.7265 33.7156 11.0257L32.387 13.8462L28.9495 21.0898C28.9074 21.1966 28.9495 21.3034 29.0339 21.3462C29.055 21.3675 29.0972 21.3675 29.1182 21.3675H44.0069C44.0912 21.3675 44.1545 21.3248 44.1756 21.2607L45.3144 18.8889C45.3355 18.8248 45.3355 18.7607 45.2933 18.6966C45.2511 18.6325 45.1878 18.6111 45.1246 18.6111H33.0618L34.4326 15.7479H46.6219C46.7062 15.7479 46.7695 15.7051 46.7906 15.641L50.0171 8.8248L50.5865 7.62822C50.6287 7.52138 50.6287 7.45728 50.6076 7.39318ZM44.998 12.9487H35.8666L35.951 12.7564C36.204 12.2436 36.5626 11.7949 36.9632 11.4103C37.3639 11.0257 37.8279 10.7265 38.3129 10.4915C38.9456 10.2137 39.6204 10.0641 40.3163 10.0641H46.3266L44.998 12.9487Z"></path><path d="M84.8979 7.30769H73.4889L76.378 1.28205L76.3991 1.26068C76.3991 1.23932 76.3991 1.21795 76.3991 1.19658C76.3991 1.13248 76.3569 1.04701 76.2093 0.982906L74.1004 0C74.0794 0 74.0583 0 74.0372 0C73.995 0 73.9739 -3.26361e-07 73.9317 0.0213672H73.9106H73.8896C73.8685 0.0427347 73.8474 0.0641026 73.8263 0.106838L65.7071 17.094C65.6861 17.1581 65.6861 17.2222 65.7071 17.2863C65.7493 17.3504 65.8126 17.3718 65.8758 17.3718H68.533C68.6174 17.3718 68.6806 17.3291 68.7017 17.265L72.1814 10.1282H80.7645L76.7154 18.5897H50.5655L51.9362 15.7265H64.1044C64.1888 15.7265 64.252 15.6838 64.2731 15.6197L67.4997 8.80342L68.0691 7.60684C68.1112 7.5 68.0691 7.39316 67.9636 7.32906C67.9425 7.30769 67.9215 7.30769 67.8793 7.30769H62.3962H62.354H62.3329H62.2908H57.3982C56.1118 7.37179 54.8675 7.71367 53.7498 8.3547C52.9485 8.82479 52.2525 9.44444 51.7042 10.1923C51.5144 10.4487 51.3246 10.7265 51.177 11.0256L49.8484 13.8462L46.411 21.0897C46.3899 21.1538 46.3899 21.218 46.4321 21.2821C46.4742 21.3462 46.5375 21.3675 46.6008 21.3675H78.4447C78.5291 21.3675 78.5923 21.3248 78.6134 21.2607L85.0666 7.58547C85.0877 7.52137 85.0877 7.45726 85.0455 7.39316C85.0244 7.32906 84.9611 7.30769 84.8979 7.30769ZM53.4546 12.7778C54.2982 11.1111 55.9852 10.0855 57.8411 10.0855H63.8513L62.5017 12.9487H53.3913L53.4546 12.7778Z"></path><path d="M102.338 7.30771H91.8571C90.5707 7.35044 89.3265 7.71369 88.2088 8.33335C87.4074 8.80344 86.7115 9.42309 86.1632 10.171C85.9734 10.4274 85.7836 10.7051 85.636 11.0043L84.3074 13.8248L80.8699 21.0684C80.8488 21.1325 80.8488 21.1966 80.8699 21.2607C80.9121 21.3248 80.9754 21.3462 81.0386 21.3462H95.9272C96.0116 21.3462 96.0749 21.3034 96.096 21.2393L97.2347 18.8675C97.2558 18.8034 97.2558 18.7393 97.2347 18.6752C97.1926 18.6111 97.1293 18.5898 97.066 18.5898H85.0033L86.3741 15.7265H98.5633C98.6477 15.7265 98.711 15.6838 98.732 15.6197L101.959 8.80344L102.528 7.58549C102.549 7.52138 102.549 7.45728 102.528 7.39318C102.465 7.32908 102.401 7.30771 102.338 7.30771ZM96.8973 12.9487H87.787L87.8714 12.7564C88.7149 11.0898 90.402 10.0641 92.2578 10.0641H98.2681L96.8973 12.9487Z"></path><path d="M119.968 7.39318C119.926 7.32908 119.863 7.30771 119.8 7.30771H114.317H114.296H114.274H114.232H109.319C108.032 7.37181 106.788 7.71369 105.67 8.33335C104.869 8.80344 104.173 9.42309 103.625 10.171C103.435 10.4274 103.245 10.7051 103.097 11.0043L101.769 13.8248L98.3314 21.0684C98.2892 21.1752 98.3314 21.2821 98.4157 21.3248C98.4368 21.3462 98.479 21.3462 98.5001 21.3462H113.389C113.473 21.3462 113.536 21.3034 113.557 21.2393L114.696 18.8675C114.738 18.8034 114.738 18.7393 114.696 18.6752C114.654 18.6111 114.591 18.5898 114.527 18.5898H102.465L103.836 15.7265H116.004C116.088 15.7265 116.151 15.6838 116.172 15.6197L119.399 8.80344L119.968 7.58549C120.011 7.52138 120.011 7.43591 119.968 7.39318ZM114.359 12.9487H105.248L105.333 12.7564C105.86 11.7522 106.704 10.9616 107.716 10.4915C108.348 10.2137 109.023 10.0641 109.719 10.0641H115.73L114.359 12.9487Z"></path></svg>